:SAMPLES-PER-SECOND 30
:FULLY-SPECIFIED
:DEGREES
331
root  -31.5824 34.2942 11.8154 -162.397 77.8297 -168.476
RightUpLeg  -10.1719 -17.1855 9.64384
RightLeg  8.40526 -2.62579 -0.215478
RightFoot  0.704566 0.00879873 0.0589283
RightToes  -13.6072 -0.0493449 -0.123288
Spine  -0.250647 0.414818 4.08083
Spine1  -0.526708 0.881247 8.51934
HEad  -65.6234 8.23734 4.5374
LeftShoulder1  -1.94126e-019 -3.10601e-018 -2.51263e-017
LeftArm  -10.9571 24.6375 -85.2499
LeftForeArm  29.4331 -29.0692 -4.66651
LeftHand  -0.39253 -1.64395 6.65114
RightShoulder  -4.96962e-017 0 -2.36833e-017
RightArm  -28.2823 -20.7232 68.9531
RightForeArm  58.4739 12.3125 1.4466
RightHand  -0.311752 -1.44134 -9.03928
LeftUpLeg  -19.6719 6.14123 10.3436
LeftLeg  33.42 18.0419 10.0287
LeftFoot  0.437766 0.00401496 0.227367
LeftToes  -20.5336 1.49739e-006 1.00523e-007
332
root  -31.654 34.3032 11.8207 -162.458 77.3532 -168.702
RightUpLeg  -10.291 -17.5904 9.77621
RightLeg  8.01503 -2.64842 -0.199187
RightFoot  0.959521 0.00894671 0.0485249
RightToes  -13.7017 -0.0497942 -0.123718
Spine  -0.355918 0.411901 4.05605
Spine1  -0.734559 0.87605 8.48042
HEad  -65.1999 8.33895 4.21571
LeftShoulder1  -1.94126e-019 -3.10601e-018 -2.51263e-017
LeftArm  -10.5787 25.0373 -84.9945
LeftForeArm  29.0535 -30.7866 -5.08203
LeftHand  -0.371498 -1.55651 6.37574
RightShoulder  -4.96962e-017 0 -2.36833e-017
RightArm  -27.0103 -21.3592 69.0794
RightForeArm  56.1778 13.5547 1.31654
RightHand  -0.298979 -1.35372 -8.48241
LeftUpLeg  -18.8902 6.2067 10.5707
LeftLeg  33.574 18.3126 10.2333
LeftFoot  0.135729 0.0109344 0.116725
LeftToes  -19.7865 1.49739e-006 1.00523e-007
333
root  -31.7245 34.3218 11.8221 -162.74 76.7416 -169.098
RightUpLeg  -10.2973 -17.9598 9.87564
RightLeg  7.517 -2.84721 -0.18933
RightFoot  1.24521 0.00922395 0.0367609
RightToes  -13.5744 -0.0501882 -0.124242
Spine  -0.452836 0.399938 3.99426
Spine1  -0.923023 0.859404 8.37517
HEad  -65.0952 8.56417 3.88325
LeftShoulder1  -1.94126e-019 -3.10601e-018 -2.51263e-017
LeftArm  -9.8597 25.6243 -84.6048
LeftForeArm  28.5689 -33.2832 -5.71498
LeftHand  -0.362504 -1.46212 6.30326
RightShoulder  -4.96962e-017 0 -2.36833e-017
RightArm  -24.6655 -22.1597 69.2809
RightForeArm  53.0567 15.5086 1.14222
RightHand  -0.268139 -1.50871 -7.87231
LeftUpLeg  -17.9793 6.55089 10.7557
LeftLeg  33.5687 18.5795 10.372
LeftFoot  0.411449 0.00349923 0.230078
LeftToes  -20.4098 1.49739e-006 1.00523e-007
334
root  -31.8024 34.351 11.8123 -163.095 76.0398 -169.517
RightUpLeg  -10.1748 -18.2354 9.93279
RightLeg  6.85632 -3.21899 -0.176923
RightFoot  1.61181 0.0100144 0.0184389
RightToes  -13.4996 -0.0505458 -0.124864
Spine  -0.528508 0.381165 3.90661
Spine1  -1.06471 0.833866 8.22996
HEad  -65.1981 8.73089 3.5787
LeftShoulder1  -1.94126e-019 -3.10601e-018 -2.51263e-017
LeftArm  -9.62974 25.9069 -84.3127
LeftForeArm  27.7586 -35.8603 -6.42928
LeftHand  -0.340386 -1.66499 5.77299
RightShoulder  -4.96962e-017 0 -2.36833e-017
RightArm  -22.7945 -22.909 69.4311
RightForeArm  50.892 17.8308 1.36294
RightHand  -0.25282 -1.55262 -7.48901
LeftUpLeg  -16.8821 6.82054 10.9132
LeftLeg  33.6649 19.0607 10.6655
LeftFoot  0.267634 0.00581027 0.188306
LeftToes  -19.2642 1.49739e-006 1.00523e-007
335
root  -31.8913 34.3915 11.796 -163.637 75.2583 -170.007
RightUpLeg  -9.92687 -18.7544 9.95112
RightLeg  6.10675 -3.53172 -0.147923
RightFoot  2.0968 0.0113968 -0.00727518
RightToes  -13.6206 -0.0508856 -0.125584
Spine  -0.601339 0.346057 3.78945
Spine1  -1.20016 0.778839 8.03902
HEad  -65.3933 8.94783 3.31456
LeftShoulder1  -1.94126e-019 -3.10601e-018 -2.51263e-017
LeftArm  -8.52349 26.2652 -83.8405
LeftForeArm  27.1395 -39.0369 -7.35731
LeftHand  -0.321313 -1.54327 5.5443
RightShoulder  -4.96962e-017 0 -2.36833e-017
RightArm  -21.117 -23.5373 69.5184
RightForeArm  49.3751 20.3358 1.88049
RightHand  -0.241214 -1.52604 -7.08824
LeftUpLeg  -15.6931 7.34387 10.9966
LeftLeg  33.8669 19.5695 11.0199
LeftFoot  0.342512 0.00174515 0.237413
LeftToes  -18.7229 1.49739e-006 1.00523e-007
336
root  -31.9924 34.4404 11.7705 -164.124 74.4386 -170.374
RightUpLeg  -9.51066 -19.0523 9.93475
RightLeg  5.15359 -4.06549 -0.102784
RightFoot  2.67695 0.0141515 -0.0512442
RightToes  -13.6489 -0.0512262 -0.126406
Spine  -0.658697 0.319357 3.6714
Spine1  -1.30314 0.736531 7.86708
HEad  -65.5936 9.11352 3.01595
LeftShoulder1  -1.94126e-019 -3.10601e-018 -2.51263e-017
LeftArm  -7.04648 26.4598 -83.3648
LeftForeArm  26.5941 -42.4706 -8.45947
LeftHand  -0.306657 -1.46338 5.35339
RightShoulder  -4.96962e-017 0 -2.36833e-017
RightArm  -19.2873 -23.9061 69.5675
RightForeArm  48.1487 22.9098 2.41403
RightHand  -0.235047 -1.54071 -6.92546
LeftUpLeg  -14.3922 7.82598 11.0504
LeftLeg  34.0677 19.9198 11.2928
LeftFoot  0.299031 -0.000206797 0.240904
LeftToes  -17.461 1.49739e-006 1.00523e-007
337
root  -32.1065 34.4839 11.7337 -164.35 73.4592 -170.483
RightUpLeg  -9.12583 -19.6526 10.005
RightLeg  4.18224 -4.42927 -0.037093
RightFoot  3.26889 0.0172983 -0.0991745
RightToes  -13.5588 -0.0515865 -0.127331
Spine  -0.738754 0.250804 3.58333
Spine1  -1.45656 0.605038 7.75886
HEad  -65.6357 9.21401 2.8711
LeftShoulder1  -1.94126e-019 -3.10601e-018 -2.51263e-017
LeftArm  -5.51977 26.6254 -82.9045
LeftForeArm  26.4197 -46.2841 -9.81992
LeftHand  -0.284022 -1.50276 4.94346
RightShoulder  -4.96962e-017 0 -2.36833e-017
RightArm  -17.3542 -24.3924 69.4802
RightForeArm  47.4091 26.8695 3.2341
RightHand  -0.221086 -1.54737 -6.51012
LeftUpLeg  -13.1559 8.3506 11.1017
LeftLeg  34.2684 20.1969 11.5291
LeftFoot  0.110008 -1.72406e-005 0.179772
LeftToes  -15.9707 1.49739e-006 1.00523e-007
338
root  -32.2227 34.4968 11.6965 -164.684 72.6318 -170.675
RightUpLeg  -9.04389 -19.8786 9.99104
RightLeg  3.90644 -5.02366 -0.0180071
RightFoot  3.57756 0.0209776 -0.152779
RightToes  -13.7985 -0.051985 -0.128361
Spine  -0.791618 0.306171 3.53162
Spine1  -1.55125 0.72838 7.66387
HEad  -65.7482 9.19545 2.6596
LeftShoulder1  -1.94126e-019 -3.10601e-018 -2.51263e-017
LeftArm  -3.73321 26.572 -82.4493
LeftForeArm  25.8741 -50.2552 -11.5084
LeftHand  -0.259061 -1.39452 4.58458
RightShoulder  -4.96962e-017 0 -2.36833e-017
RightArm  -15.404 -25.201 69.1838
RightForeArm  46.9387 32.717 4.5388
RightHand  -0.202919 -1.71171 -6.19923
LeftUpLeg  -11.9584 9.45022 11.017
LeftLeg  34.638 20.5653 11.8933
LeftFoot  -0.495062 -0.00103356 -0.0776981
LeftToes  -13.7921 1.49739e-006 1.00523e-007
339
root  -32.4004 34.5004 11.6254 -164.99 71.2233 -170.849
RightUpLeg  -9.21387 -20.8702 10.0531
RightLeg  3.87947 -5.40716 -0.0168647
RightFoot  3.78532 0.0237551 -0.191273
RightToes  -13.8928 -0.0524403 -0.129499
Spine  -0.882388 0.199357 3.52837
Spine1  -1.72717 0.540114 7.65269
HEad  -65.7938 9.1924 2.55272
LeftShoulder1  -1.94126e-019 -3.10601e-018 -2.51263e-017
LeftArm  -2.17571 26.4106 -82.1574
LeftForeArm  25.5025 -54.2895 -13.5668
LeftHand  -0.21634 -1.17225 3.96144
RightShoulder  -4.96962e-017 0 -2.36833e-017
RightArm  -13.5057 -25.7896 68.6858
RightForeArm  46.398 38.3107 5.95941
RightHand  -0.19925 -1.54896 -5.84489
LeftUpLeg  -11.1532 10.2462 10.7732
LeftLeg  35.154 21.5153 12.6481
LeftFoot  -1.51824 -0.00954118 -0.558509
LeftToes  -10.6091 1.49739e-006 1.00523e-007
340
root  -32.5727 34.5083 11.5626 -165.095 70.2929 -170.876
RightUpLeg  -9.34999 -21.1752 10.0714
RightLeg  3.74184 -5.98288 -0.00435141
RightFoot  4.12763 0.0287378 -0.25877
RightToes  -14.1441 -0.0529713 -0.130745
Spine  -0.966249 0.381448 3.62265
Spine1  -1.87171 0.918891 7.85097
HEad  -65.7531 8.7265 2.09431
LeftShoulder1  -1.94126e-019 -3.10601e-018 -2.51263e-017
LeftArm  -0.334456 26.0494 -82.2665
LeftForeArm  25.2559 -57.9438 -15.861
LeftHand  -0.177635 -0.900297 3.38968
RightShoulder  -4.96962e-017 0 -2.36833e-017
RightArm  -11.472 -26.5 67.5535
RightForeArm  46.1657 44.3955 7.76516
RightHand  -0.180586 -1.69388 -5.46095
LeftUpLeg  -10.0661 12.1816 10.4419
LeftLeg  34.8214 22.2885 12.9014
LeftFoot  -2.55708 -0.0276474 -1.07713
LeftToes  -8.0763 1.49739e-006 1.00523e-007
341
root  -32.7586 34.4988 11.4933 -164.555 69.2635 -170.315
RightUpLeg  -9.60986 -21.4118 10.3224
RightLeg  3.62394 -6.66977 0.00882111
RightFoot  4.44543 0.0347817 -0.338632
RightToes  -14.1601 -0.0535966 -0.132102
Spine  -1.07338 0.298946 3.6091
Spine1  -2.07063 0.786315 7.82035
HEad  -65.6671 9.04081 2.2655
LeftShoulder1  -1.94126e-019 -3.10601e-018 -2.51263e-017
LeftArm  1.2761 25.988 -81.7321
LeftForeArm  25.745 -62.2036 -19.2624
LeftHand  -0.141231 -0.365875 2.91141
RightShoulder  -4.96962e-017 0 -2.36833e-017
RightArm  -9.08433 -26.5547 66.9827
RightForeArm  46.5578 49.5068 9.56852
RightHand  -0.18239 -1.39674 -5.14537
LeftUpLeg  -9.10424 14.6586 10.2219
LeftLeg  33.8813 22.7365 12.6723
LeftFoot  -3.72786 -0.0591342 -1.65536
LeftToes  -5.75455 1.49739e-006 1.00523e-007
342
root  -33.0137 34.4819 11.4242 -164.072 67.883 -169.767
RightUpLeg  -10.062 -22.1739 10.6531
RightLeg  3.69895 -7.13795 0.000137023
RightFoot  4.77444 0.04045 -0.410036
RightToes  -14.5424 -0.0543347 -0.133573
Spine  -1.16341 0.20648 3.72295
Spine1  -2.23724 0.626744 8.05458
HEad  -65.5228 8.97747 2.3157
LeftShoulder1  -1.94126e-019 -3.10601e-018 -2.51263e-017
LeftArm  3.03204 25.5951 -81.5917
LeftForeArm  26.1087 -65.8418 -23.2546
LeftHand  -0.112296 0.0521805 2.45911
RightShoulder  -4.96962e-017 0 -2.36833e-017
RightArm  -6.68094 -26.4024 65.9328
RightForeArm  47.5197 54.6708 11.8086
RightHand  -0.173434 -1.32655 -4.80667
LeftUpLeg  -8.40139 16.962 9.89266
LeftLeg  32.5537 23.0405 12.1734
LeftFoot  -4.34196 -0.0801355 -1.95207
LeftToes  -5.5308 1.49739e-006 1.00523e-007
343
root  -33.323 34.4579 11.3501 -163.695 66.1288 -169.259
RightUpLeg  -10.6282 -23.3994 11.0468
RightLeg  3.89776 -7.51773 -0.0258242
RightFoot  5.12514 0.0464022 -0.482117
RightToes  -14.965 -0.0552046 -0.135159
Spine  -1.23423 -0.0143308 3.87193
Spine1  -2.37452 0.209693 8.36109
HEad  -65.3247 8.90713 2.39356
LeftShoulder1  -1.94126e-019 -3.10601e-018 -2.51263e-017
LeftArm  4.7713 24.9807 -81.5063
LeftForeArm  26.987 -69.1444 -28.2962
LeftHand  -0.0742962 0.68272 1.76218
RightShoulder  -4.96962e-017 0 -2.36833e-017
RightArm  -4.33469 -25.9431 64.8643
RightForeArm  48.9419 59.5409 14.5301
RightHand  -0.169084 -1.26992 -4.62392
LeftUpLeg  -7.88411 18.7834 9.42526
LeftLeg  30.7217 22.9579 11.2552
LeftFoot  -3.76516 -0.0588644 -1.62914
LeftToes  -7.7341 1.49739e-006 1.00523e-007
344
root  -33.6969 34.4274 11.3032 -163.672 64.0004 -169.024
RightUpLeg  -11.2671 -24.3322 11.3808
RightLeg  4.21084 -8.57808 -0.0760376
RightFoot  5.43942 0.0569463 -0.616174
RightToes  -15.2418 -0.056552 -0.137508
Spine  -1.27047 -0.349779 4.0162
Spine1  -2.45873 -0.443742 8.66313
HEad  -65.1951 8.75035 2.4588
LeftShoulder1  -1.94126e-019 -3.10601e-018 -2.51263e-017
LeftArm  6.71145 24.0814 -81.3543
LeftForeArm  29.5423 -72.0238 -34.433
LeftHand  -0.0484088 1.30627 1.19313
RightShoulder  -4.96962e-017 0 -2.36833e-017
RightArm  -2.08343 -25.1806 63.9188
RightForeArm  50.9047 64.034 17.8969
RightHand  -0.17122 -0.972338 -4.40534
LeftUpLeg  -7.54368 19.7031 8.81845
LeftLeg  28.6491 24.595 10.9634
LeftFoot  -5.57674 -0.137094 -2.65264
LeftToes  -8.80641 1.49739e-006 1.00523e-007
345
root  -34.1124 34.4459 11.2183 -164.668 61.8401 -169.829
RightUpLeg  -12.0122 -25.6253 11.1428
RightLeg  4.82473 -9.40884 -0.183575
RightFoot  5.84145 0.0681258 -0.755366
RightToes  -15.5471 -0.0584565 -0.140828
Spine  -1.24669 -0.719331 4.00409
Spine1  -2.4425 -1.17957 8.65211
HEad  -65.1647 8.50233 2.64504
LeftShoulder1  -1.94126e-019 -3.10601e-018 -2.51263e-017
LeftArm  8.95895 22.9058 -80.9782
LeftForeArm  33.3731 -74.2589 -41.2204
LeftHand  -0.0336193 1.58382 0.776619
RightShoulder  -4.96962e-017 0 -2.36833e-017
RightArm  0.123322 -24.295 63.2376
RightForeArm  53.8546 68.1667 22.2003
RightHand  -0.170532 -0.948652 -4.3666
LeftUpLeg  -7.09755 18.3142 7.93232
LeftLeg  25.7606 25.8227 10.0165
LeftFoot  -7.67734 -0.268935 -3.84487
LeftToes  -2.58981 1.49739e-006 1.00523e-007
